<svg xmlns="http://www.w3.org/2000/svg" viewBox="0 0 134.64 53.49">
    <defs>
        <style>
            .cls-1 {
                fill: none;
                stroke: #231815;
                stroke-linecap: square;
                stroke-linejoin: round;
                stroke-width: 1.41px;
            }

            .cls-2 {
                fill: #231815;
            }
        </style>
    </defs>
    <g id="レイヤー_2" data-name="レイヤー 2">
        <g id="レイヤー_1-2" data-name="レイヤー 1">
            <polyline class="cls-1" points="0.71 10.96 0.71 31.45 21.2 10.96 21.2 31.45 41.7 10.96 41.7 31.45" />
            <polyline class="cls-1" points="51.95 10.96 51.95 31.45 72.44 31.45 72.44 10.96" />
            <polyline class="cls-1" points="92.94 10.96 92.94 31.45 103.19 31.45" />
            <line class="cls-1" x1="82.69" y1="10.96" x2="103.19" y2="10.96" />
            <polyline class="cls-1"
                points="133.94 31.45 113.44 31.45 113.44 10.96 133.94 10.96 133.94 21.2 113.44 21.2" />
            <line class="cls-1" x1="92.94" y1="0.71" x2="92.94" y2="10.96" />
            <path class="cls-2"
                d="M1.54,53.27V48.18H.71v-.52h.83V47a1.89,1.89,0,0,1,.4-1.32A1.41,1.41,0,0,1,3,45.25a2.45,2.45,0,0,1,.67.08,4,4,0,0,1,.44.18L3.92,46a2.56,2.56,0,0,0-.37-.17,1.83,1.83,0,0,0-.5-.07.83.83,0,0,0-.65.27,1.5,1.5,0,0,0-.24,1v.62H3.47v.52H2.16v5.09Z" />
            <path class="cls-2"
                d="M8.17,53.15a2.53,2.53,0,0,1-.78-.67,3.09,3.09,0,0,1-.48-1,4.12,4.12,0,0,1-.16-1.1,4,4,0,0,1,.16-1.1,3.13,3.13,0,0,1,.47-.93,2.47,2.47,0,0,1,.78-.65,2.37,2.37,0,0,1,1.09-.24,2.4,2.4,0,0,1,1.09.25,2.62,2.62,0,0,1,.79.65,2.86,2.86,0,0,1,.47.94,3.9,3.9,0,0,1,0,2.21,2.68,2.68,0,0,1-.47.94,2.51,2.51,0,0,1-.79.66,2.4,2.4,0,0,1-1.09.25A2.33,2.33,0,0,1,8.17,53.15Zm-.33-1a1.86,1.86,0,0,0,.59.56,1.71,1.71,0,0,0,1.66,0,2,2,0,0,0,.59-.57,2.77,2.77,0,0,0,.35-.78,3.29,3.29,0,0,0,0-1.76,2.59,2.59,0,0,0-.35-.77,1.93,1.93,0,0,0-.59-.55,1.79,1.79,0,0,0-1.68,0,1.87,1.87,0,0,0-.58.54,2.17,2.17,0,0,0-.35.77,3.22,3.22,0,0,0-.11.88,4,4,0,0,0,.11.9A2.59,2.59,0,0,0,7.84,52.11Z" />
            <path class="cls-2"
                d="M15.72,53.27V47.66h.56l0,.56a2.51,2.51,0,0,1,.61-.5,1.51,1.51,0,0,1,.78-.2,2.68,2.68,0,0,1,.42,0,1.76,1.76,0,0,1,.3.06l-.1.58a1.83,1.83,0,0,0-.66-.1,1.33,1.33,0,0,0-.74.24,2.32,2.32,0,0,0-.59.52v4.43Z" />
            <path class="cls-2"
                d="M26.94,53.27V45.41h2.48a2.6,2.6,0,0,1,1.81.56,2,2,0,0,1,.62,1.57,2,2,0,0,1-.57,1.53,2.5,2.5,0,0,1-1.51.61L32,53.27h-.73L29,49.71H27.59v3.56Zm.65-4.14h1.79a2.05,2.05,0,0,0,1.35-.39,1.51,1.51,0,0,0,.46-1.2,1.48,1.48,0,0,0-.45-1.16,2,2,0,0,0-1.33-.4H27.59Z" />
            <path class="cls-2"
                d="M35.86,53.27V45.41h2.47a2.62,2.62,0,0,1,1.82.58,2.19,2.19,0,0,1,.64,1.71,2.5,2.5,0,0,1-.18,1,1.85,1.85,0,0,1-.51.71,2.1,2.1,0,0,1-.78.43,3.41,3.41,0,0,1-1,.14H36.51v3.3Zm.65-3.89h1.83a1.86,1.86,0,0,0,1.3-.44,1.6,1.6,0,0,0,.48-1.22,1.79,1.79,0,0,0-.44-1.28A1.84,1.84,0,0,0,38.33,46H36.51Z" />
            <path class="cls-2"
                d="M44.73,46.45a.37.37,0,0,1-.3-.15.55.55,0,0,1-.13-.38.52.52,0,0,1,.13-.37.36.36,0,0,1,.3-.14.41.41,0,0,1,.32.14.57.57,0,0,1,.13.37.61.61,0,0,1-.13.39A.41.41,0,0,1,44.73,46.45Zm-.31,6.82V47.66h.63v5.61Z" />
            <path class="cls-2" d="M49,50.45v-.61h2.5v.61Z" />
            <path class="cls-2"
                d="M54.6,53.27l3-7.86h.48l3,7.86h-.68l-1-2.52H56.21l-1,2.52Zm1.82-3.11h2.82l-1.44-3.8Z" />
            <path class="cls-2"
                d="M65.07,51.28a1.53,1.53,0,0,0,.42,1.21,1.62,1.62,0,0,0,1.12.38,2.27,2.27,0,0,0,1-.22,2.54,2.54,0,0,0,.76-.56V47.66H69v5.61h-.55l0-.56a3.63,3.63,0,0,1-.74.48,2.51,2.51,0,0,1-1.1.21A2.14,2.14,0,0,1,65,52.88a2.11,2.11,0,0,1-.55-1.6V47.66h.63Z" />
            <path class="cls-2"
                d="M77,53.27l-.07-.5a1.83,1.83,0,0,1-.66.46,2.36,2.36,0,0,1-.92.17,2.25,2.25,0,0,1-1-.22,2.15,2.15,0,0,1-.77-.6,2.75,2.75,0,0,1-.49-.93,4.28,4.28,0,0,1-.17-1.22,3.44,3.44,0,0,1,.19-1.18,2.71,2.71,0,0,1,.53-.92,2.48,2.48,0,0,1,.82-.61,2.88,2.88,0,0,1,1.93-.1,2.24,2.24,0,0,1,.56.25V45.41h.61v7.86ZM77,48.48a1.68,1.68,0,0,0-.57-.32,2.3,2.3,0,0,0-.79-.14,1.79,1.79,0,0,0-.84.19,1.89,1.89,0,0,0-.65.5,2.38,2.38,0,0,0-.42.77,3,3,0,0,0-.15,1,2.87,2.87,0,0,0,.5,1.76,1.66,1.66,0,0,0,1.41.67,1.92,1.92,0,0,0,.87-.2,2.06,2.06,0,0,0,.64-.53Z" />
            <path class="cls-2"
                d="M82.08,46.45a.37.37,0,0,1-.3-.15.55.55,0,0,1-.13-.38.52.52,0,0,1,.13-.37.36.36,0,0,1,.3-.14.41.41,0,0,1,.32.14.57.57,0,0,1,.12.37.61.61,0,0,1-.12.39A.41.41,0,0,1,82.08,46.45Zm-.31,6.82V47.66h.63v5.61Z" />
            <path class="cls-2"
                d="M87.77,53.15a2.53,2.53,0,0,1-.78-.67,3.09,3.09,0,0,1-.48-1,4.11,4.11,0,0,1-.15-1.1,4,4,0,0,1,.15-1.1,2.93,2.93,0,0,1,.48-.93,2.32,2.32,0,0,1,.77-.65,2.37,2.37,0,0,1,1.09-.24,2.4,2.4,0,0,1,1.09.25,2.5,2.5,0,0,1,.79.65,3.09,3.09,0,0,1,.48.94,4.15,4.15,0,0,1,0,2.21,2.88,2.88,0,0,1-.48.94,2.3,2.3,0,0,1-1.88.91A2.36,2.36,0,0,1,87.77,53.15Zm-.33-1a2,2,0,0,0,.59.56,1.56,1.56,0,0,0,.82.21,1.5,1.5,0,0,0,.84-.22,1.89,1.89,0,0,0,.59-.57,2.3,2.3,0,0,0,.35-.78,3.29,3.29,0,0,0,0-1.76,2.17,2.17,0,0,0-.35-.77,1.82,1.82,0,0,0-.59-.55,1.77,1.77,0,0,0-1.67,0,1.91,1.91,0,0,0-.59.54,2.17,2.17,0,0,0-.35.77,3.66,3.66,0,0,0-.11.88,3.48,3.48,0,0,0,.12.9A2.35,2.35,0,0,0,87.44,52.11Z" />
            <path class="cls-2" d="M94.51,53.17l4.94-8.79.48.28L95,53.49Z" />
            <path class="cls-2"
                d="M108.43,53.27V45.41h.83l2.55,6.6,2.43-6.6h.8v7.86h-.62v-6.7L111.9,53.4h-.15l-2.69-6.82v6.69Z" />
            <path class="cls-2"
                d="M119.55,53.27V45.41H122a2.62,2.62,0,0,1,1.82.58,2.19,2.19,0,0,1,.64,1.71,2.5,2.5,0,0,1-.18,1,1.85,1.85,0,0,1-.51.71,2.1,2.1,0,0,1-.78.43,3.41,3.41,0,0,1-1,.14h-1.83v3.3Zm.64-3.89H122a1.86,1.86,0,0,0,1.3-.44,1.6,1.6,0,0,0,.48-1.22,1.79,1.79,0,0,0-.44-1.28A1.84,1.84,0,0,0,122,46h-1.82Z" />
            <path class="cls-2"
                d="M128.24,53.27V45.41h1.94a4.72,4.72,0,0,1,1.53.24,3.2,3.2,0,0,1,1.19.72,3.09,3.09,0,0,1,.76,1.19,4.65,4.65,0,0,1,.28,1.66,5.34,5.34,0,0,1-.28,1.79,3.3,3.3,0,0,1-.76,1.26,3.26,3.26,0,0,1-1.19.75,4.63,4.63,0,0,1-1.53.25Zm.64-.58h1.18a3.8,3.8,0,0,0,1.29-.2,2.47,2.47,0,0,0,1-.61,2.9,2.9,0,0,0,.66-1.06,4.69,4.69,0,0,0,.23-1.55,4.21,4.21,0,0,0-.22-1.45,2.61,2.61,0,0,0-1.63-1.63,4.13,4.13,0,0,0-1.3-.19h-1.23Z" />
        </g>
    </g>
</svg>